<mxfile host="app.diagrams.net" modified="2021-06-16T04:04:32.512Z" agent="5.0 (Windows NT 10.0; Win64; x64) AppleWebKit/537.36 (KHTML, like Gecko) Chrome/91.0.4472.101 Safari/537.36" etag="OAEvZf3oLoRY-Vc-E7YK" version="14.6.13" type="github">
  <diagram id="DKP5Q3BiL1xCqyIxU26e" name="Page-1">
    <mxGraphModel dx="1422" dy="762" grid="0" gridSize="10" guides="1" tooltips="1" connect="1" arrows="1" fold="1" page="1" pageScale="1" pageWidth="850" pageHeight="1100" math="0" shadow="0">
      <root>
        <mxCell id="0" />
        <mxCell id="1" parent="0" />
        <mxCell id="5QR5eO9x2RFh60aS3JR9-59" style="edgeStyle=orthogonalEdgeStyle;rounded=0;orthogonalLoop=1;jettySize=auto;html=1;exitX=0.5;exitY=0;exitDx=0;exitDy=0;entryX=0;entryY=0.25;entryDx=0;entryDy=0;" parent="1" source="5QR5eO9x2RFh60aS3JR9-49" target="5QR5eO9x2RFh60aS3JR9-50" edge="1">
          <mxGeometry relative="1" as="geometry" />
        </mxCell>
        <mxCell id="5QR5eO9x2RFh60aS3JR9-96" style="edgeStyle=orthogonalEdgeStyle;rounded=0;orthogonalLoop=1;jettySize=auto;html=1;exitX=1;exitY=0.5;exitDx=0;exitDy=0;entryX=0;entryY=0.5;entryDx=0;entryDy=0;" parent="1" source="5QR5eO9x2RFh60aS3JR9-49" target="5QR5eO9x2RFh60aS3JR9-51" edge="1">
          <mxGeometry relative="1" as="geometry">
            <Array as="points">
              <mxPoint x="140" y="435" />
            </Array>
          </mxGeometry>
        </mxCell>
        <mxCell id="5QR5eO9x2RFh60aS3JR9-49" value="Customer" style="whiteSpace=wrap;html=1;aspect=fixed;" parent="1" vertex="1">
          <mxGeometry x="40" y="390" width="100" height="100" as="geometry" />
        </mxCell>
        <mxCell id="5QR5eO9x2RFh60aS3JR9-57" style="edgeStyle=orthogonalEdgeStyle;rounded=0;orthogonalLoop=1;jettySize=auto;html=1;exitX=0.5;exitY=1;exitDx=0;exitDy=0;entryX=0.5;entryY=0;entryDx=0;entryDy=0;" parent="1" source="5QR5eO9x2RFh60aS3JR9-50" target="5QR5eO9x2RFh60aS3JR9-51" edge="1">
          <mxGeometry relative="1" as="geometry" />
        </mxCell>
        <mxCell id="5QR5eO9x2RFh60aS3JR9-60" style="edgeStyle=orthogonalEdgeStyle;rounded=0;orthogonalLoop=1;jettySize=auto;html=1;exitX=0;exitY=0.5;exitDx=0;exitDy=0;entryX=0.75;entryY=0;entryDx=0;entryDy=0;" parent="1" source="5QR5eO9x2RFh60aS3JR9-50" target="5QR5eO9x2RFh60aS3JR9-49" edge="1">
          <mxGeometry relative="1" as="geometry" />
        </mxCell>
        <mxCell id="5QR5eO9x2RFh60aS3JR9-101" style="edgeStyle=orthogonalEdgeStyle;rounded=0;orthogonalLoop=1;jettySize=auto;html=1;exitX=0.75;exitY=0;exitDx=0;exitDy=0;entryX=0;entryY=0.829;entryDx=0;entryDy=0;entryPerimeter=0;" parent="1" source="5QR5eO9x2RFh60aS3JR9-50" target="5QR5eO9x2RFh60aS3JR9-114" edge="1">
          <mxGeometry relative="1" as="geometry">
            <mxPoint x="700" y="150" as="targetPoint" />
          </mxGeometry>
        </mxCell>
        <mxCell id="5QR5eO9x2RFh60aS3JR9-50" value="1.1&lt;br&gt;------------------------&lt;br&gt;Check for Customer Profile" style="rounded=1;whiteSpace=wrap;html=1;" parent="1" vertex="1">
          <mxGeometry x="320" y="210" width="100" height="90" as="geometry" />
        </mxCell>
        <mxCell id="5QR5eO9x2RFh60aS3JR9-58" style="edgeStyle=orthogonalEdgeStyle;rounded=0;orthogonalLoop=1;jettySize=auto;html=1;exitX=0.5;exitY=1;exitDx=0;exitDy=0;entryX=0.5;entryY=0;entryDx=0;entryDy=0;" parent="1" source="5QR5eO9x2RFh60aS3JR9-51" target="5QR5eO9x2RFh60aS3JR9-52" edge="1">
          <mxGeometry relative="1" as="geometry" />
        </mxCell>
        <mxCell id="5QR5eO9x2RFh60aS3JR9-87" style="edgeStyle=orthogonalEdgeStyle;rounded=0;orthogonalLoop=1;jettySize=auto;html=1;exitX=1;exitY=0.75;exitDx=0;exitDy=0;entryX=0;entryY=0.75;entryDx=0;entryDy=0;" parent="1" source="5QR5eO9x2RFh60aS3JR9-51" edge="1">
          <mxGeometry relative="1" as="geometry">
            <mxPoint x="700" y="380" as="targetPoint" />
            <Array as="points">
              <mxPoint x="420" y="440" />
              <mxPoint x="560" y="440" />
              <mxPoint x="560" y="380" />
            </Array>
          </mxGeometry>
        </mxCell>
        <mxCell id="5QR5eO9x2RFh60aS3JR9-95" style="edgeStyle=orthogonalEdgeStyle;rounded=0;orthogonalLoop=1;jettySize=auto;html=1;exitX=0;exitY=0.25;exitDx=0;exitDy=0;entryX=1;entryY=0.25;entryDx=0;entryDy=0;" parent="1" source="5QR5eO9x2RFh60aS3JR9-51" target="5QR5eO9x2RFh60aS3JR9-49" edge="1">
          <mxGeometry relative="1" as="geometry">
            <Array as="points">
              <mxPoint x="320" y="415" />
            </Array>
          </mxGeometry>
        </mxCell>
        <mxCell id="5QR5eO9x2RFh60aS3JR9-97" style="edgeStyle=orthogonalEdgeStyle;rounded=0;orthogonalLoop=1;jettySize=auto;html=1;exitX=0;exitY=0.75;exitDx=0;exitDy=0;entryX=1;entryY=0.75;entryDx=0;entryDy=0;" parent="1" source="5QR5eO9x2RFh60aS3JR9-51" target="5QR5eO9x2RFh60aS3JR9-49" edge="1">
          <mxGeometry relative="1" as="geometry">
            <Array as="points">
              <mxPoint x="320" y="465" />
            </Array>
          </mxGeometry>
        </mxCell>
        <mxCell id="5QR5eO9x2RFh60aS3JR9-118" style="edgeStyle=orthogonalEdgeStyle;rounded=0;orthogonalLoop=1;jettySize=auto;html=1;exitX=0.75;exitY=1;exitDx=0;exitDy=0;entryX=-0.02;entryY=0.843;entryDx=0;entryDy=0;entryPerimeter=0;" parent="1" source="5QR5eO9x2RFh60aS3JR9-51" target="5QR5eO9x2RFh60aS3JR9-117" edge="1">
          <mxGeometry relative="1" as="geometry" />
        </mxCell>
        <mxCell id="5QR5eO9x2RFh60aS3JR9-123" style="edgeStyle=orthogonalEdgeStyle;rounded=0;orthogonalLoop=1;jettySize=auto;html=1;" parent="1" source="5QR5eO9x2RFh60aS3JR9-51" target="5QR5eO9x2RFh60aS3JR9-52" edge="1">
          <mxGeometry relative="1" as="geometry" />
        </mxCell>
        <mxCell id="5QR5eO9x2RFh60aS3JR9-51" value="1.2&lt;br&gt;------------------------&lt;br&gt;Check Item Availability" style="rounded=1;whiteSpace=wrap;html=1;" parent="1" vertex="1">
          <mxGeometry x="320" y="390" width="100" height="90" as="geometry" />
        </mxCell>
        <mxCell id="5QR5eO9x2RFh60aS3JR9-107" style="edgeStyle=orthogonalEdgeStyle;rounded=0;orthogonalLoop=1;jettySize=auto;html=1;exitX=0;exitY=0.5;exitDx=0;exitDy=0;entryX=0.5;entryY=1;entryDx=0;entryDy=0;" parent="1" source="5QR5eO9x2RFh60aS3JR9-52" target="5QR5eO9x2RFh60aS3JR9-49" edge="1">
          <mxGeometry relative="1" as="geometry" />
        </mxCell>
        <mxCell id="5QR5eO9x2RFh60aS3JR9-52" value="1.3&lt;br&gt;------------------------&lt;br&gt;Debit/Credit&lt;br&gt;Payment" style="rounded=1;whiteSpace=wrap;html=1;" parent="1" vertex="1">
          <mxGeometry x="320" y="560" width="100" height="90" as="geometry" />
        </mxCell>
        <mxCell id="5QR5eO9x2RFh60aS3JR9-89" style="edgeStyle=orthogonalEdgeStyle;rounded=0;orthogonalLoop=1;jettySize=auto;html=1;exitX=0;exitY=0.5;exitDx=0;exitDy=0;entryX=0.75;entryY=0;entryDx=0;entryDy=0;" parent="1" target="5QR5eO9x2RFh60aS3JR9-51" edge="1">
          <mxGeometry relative="1" as="geometry">
            <mxPoint x="700" y="240" as="sourcePoint" />
            <Array as="points">
              <mxPoint x="460" y="240" />
              <mxPoint x="460" y="340" />
              <mxPoint x="395" y="340" />
            </Array>
          </mxGeometry>
        </mxCell>
        <mxCell id="5QR5eO9x2RFh60aS3JR9-100" style="edgeStyle=orthogonalEdgeStyle;rounded=0;orthogonalLoop=1;jettySize=auto;html=1;exitX=0;exitY=0.25;exitDx=0;exitDy=0;entryX=0.25;entryY=0;entryDx=0;entryDy=0;" parent="1" target="5QR5eO9x2RFh60aS3JR9-50" edge="1">
          <mxGeometry relative="1" as="geometry">
            <mxPoint x="700" y="110" as="sourcePoint" />
          </mxGeometry>
        </mxCell>
        <mxCell id="5QR5eO9x2RFh60aS3JR9-84" style="edgeStyle=orthogonalEdgeStyle;rounded=0;orthogonalLoop=1;jettySize=auto;html=1;exitX=0;exitY=0.25;exitDx=0;exitDy=0;entryX=0.99;entryY=0.889;entryDx=0;entryDy=0;entryPerimeter=0;" parent="1" target="5QR5eO9x2RFh60aS3JR9-51" edge="1">
          <mxGeometry relative="1" as="geometry">
            <mxPoint x="700" y="470" as="sourcePoint" />
          </mxGeometry>
        </mxCell>
        <mxCell id="5QR5eO9x2RFh60aS3JR9-88" style="edgeStyle=orthogonalEdgeStyle;rounded=0;orthogonalLoop=1;jettySize=auto;html=1;exitX=0;exitY=0.25;exitDx=0;exitDy=0;entryX=1;entryY=0.25;entryDx=0;entryDy=0;" parent="1" target="5QR5eO9x2RFh60aS3JR9-51" edge="1">
          <mxGeometry relative="1" as="geometry">
            <mxPoint x="700" y="340" as="sourcePoint" />
            <Array as="points">
              <mxPoint x="490" y="340" />
              <mxPoint x="490" y="413" />
            </Array>
          </mxGeometry>
        </mxCell>
        <mxCell id="5QR5eO9x2RFh60aS3JR9-71" value="Name and phone number" style="edgeLabel;resizable=0;html=1;align=center;verticalAlign=middle;" parent="1" connectable="0" vertex="1">
          <mxGeometry x="210" y="230" as="geometry" />
        </mxCell>
        <mxCell id="5QR5eO9x2RFh60aS3JR9-72" value="ItemID, Cost, Description" style="edgeLabel;resizable=0;html=1;align=center;verticalAlign=middle;" parent="1" connectable="0" vertex="1">
          <mxGeometry x="570" y="240" as="geometry" />
        </mxCell>
        <mxCell id="5QR5eO9x2RFh60aS3JR9-73" value="Search results" style="edgeLabel;resizable=0;html=1;align=center;verticalAlign=middle;" parent="1" connectable="0" vertex="1">
          <mxGeometry x="220" y="460" as="geometry" />
        </mxCell>
        <mxCell id="5QR5eO9x2RFh60aS3JR9-75" value="Customer profile missing" style="edgeLabel;resizable=0;html=1;align=center;verticalAlign=middle;" parent="1" connectable="0" vertex="1">
          <mxGeometry x="210" y="255" as="geometry" />
        </mxCell>
        <mxCell id="5QR5eO9x2RFh60aS3JR9-79" value="Customer profile found" style="edgeLabel;resizable=0;html=1;align=center;verticalAlign=middle;" parent="1" connectable="0" vertex="1">
          <mxGeometry x="570" y="130" as="geometry">
            <mxPoint x="-36" y="-20" as="offset" />
          </mxGeometry>
        </mxCell>
        <mxCell id="5QR5eO9x2RFh60aS3JR9-90" value="Item(s) requested&amp;nbsp;" style="edgeLabel;resizable=0;html=1;align=center;verticalAlign=middle;" parent="1" connectable="0" vertex="1">
          <mxGeometry x="619.9998611111539" y="380" as="geometry" />
        </mxCell>
        <mxCell id="5QR5eO9x2RFh60aS3JR9-91" value="Item(s) requested&amp;nbsp;" style="edgeLabel;resizable=0;html=1;align=center;verticalAlign=middle;" parent="1" connectable="0" vertex="1">
          <mxGeometry x="549.9998611111539" y="510" as="geometry" />
        </mxCell>
        <mxCell id="5QR5eO9x2RFh60aS3JR9-92" value="ItemID, cost, description, quantity" style="edgeLabel;resizable=0;html=1;align=center;verticalAlign=middle;" parent="1" connectable="0" vertex="1">
          <mxGeometry x="600" y="340" as="geometry" />
        </mxCell>
        <mxCell id="5QR5eO9x2RFh60aS3JR9-93" value="ItemID, cost, description, quantity" style="edgeLabel;resizable=0;html=1;align=center;verticalAlign=middle;" parent="1" connectable="0" vertex="1">
          <mxGeometry x="560" y="470" as="geometry" />
        </mxCell>
        <mxCell id="5QR5eO9x2RFh60aS3JR9-94" value="Item search" style="edgeLabel;resizable=0;html=1;align=center;verticalAlign=middle;" parent="1" connectable="0" vertex="1">
          <mxGeometry x="220" y="435" as="geometry" />
        </mxCell>
        <mxCell id="5QR5eO9x2RFh60aS3JR9-98" value="Item out of stock" style="edgeLabel;resizable=0;html=1;align=center;verticalAlign=middle;" parent="1" connectable="0" vertex="1">
          <mxGeometry x="220" y="410" as="geometry" />
        </mxCell>
        <mxCell id="5QR5eO9x2RFh60aS3JR9-102" value="Create new customer profile" style="edgeLabel;resizable=0;html=1;align=center;verticalAlign=middle;" parent="1" connectable="0" vertex="1">
          <mxGeometry x="580" y="170" as="geometry">
            <mxPoint x="-36" y="-20" as="offset" />
          </mxGeometry>
        </mxCell>
        <mxCell id="5QR5eO9x2RFh60aS3JR9-104" value="Bank" style="whiteSpace=wrap;html=1;aspect=fixed;" parent="1" vertex="1">
          <mxGeometry x="40" y="640" width="100" height="100" as="geometry" />
        </mxCell>
        <mxCell id="5QR5eO9x2RFh60aS3JR9-108" value="Payment successful or failed" style="edgeLabel;resizable=0;html=1;align=center;verticalAlign=middle;" parent="1" connectable="0" vertex="1">
          <mxGeometry x="200" y="605" as="geometry" />
        </mxCell>
        <mxCell id="5QR5eO9x2RFh60aS3JR9-114" value="&amp;nbsp; &amp;nbsp; &amp;nbsp; &amp;nbsp; &amp;nbsp; &amp;nbsp;Customer" style="html=1;dashed=0;whitespace=wrap;shape=mxgraph.dfd.dataStoreID;align=left;spacingLeft=3;points=[[0,0],[0.5,0],[1,0],[0,0.5],[1,0.5],[0,1],[0.5,1],[1,1]];" parent="1" vertex="1">
          <mxGeometry x="700" y="95" width="150" height="70" as="geometry" />
        </mxCell>
        <mxCell id="5QR5eO9x2RFh60aS3JR9-115" value="&lt;span style=&quot;text-align: center&quot;&gt;&amp;nbsp; &amp;nbsp; &amp;nbsp; &amp;nbsp; &amp;nbsp; &amp;nbsp;Store&lt;/span&gt;&lt;br style=&quot;text-align: center&quot;&gt;&lt;span style=&quot;text-align: center&quot;&gt;&amp;nbsp; &amp;nbsp; &amp;nbsp; &amp;nbsp; &amp;nbsp; &amp;nbsp;Inventory Level&lt;/span&gt;" style="html=1;dashed=0;whitespace=wrap;shape=mxgraph.dfd.dataStoreID;align=left;spacingLeft=3;points=[[0,0],[0.5,0],[1,0],[0,0.5],[1,0.5],[0,1],[0.5,1],[1,1]];" parent="1" vertex="1">
          <mxGeometry x="700" y="330" width="150" height="70" as="geometry" />
        </mxCell>
        <mxCell id="5QR5eO9x2RFh60aS3JR9-116" value="&lt;span style=&quot;text-align: center&quot;&gt;&amp;nbsp; &amp;nbsp; &amp;nbsp; &amp;nbsp; &amp;nbsp; &amp;nbsp;Item Details&lt;/span&gt;" style="html=1;dashed=0;whitespace=wrap;shape=mxgraph.dfd.dataStoreID;align=left;spacingLeft=3;points=[[0,0],[0.5,0],[1,0],[0,0.5],[1,0.5],[0,1],[0.5,1],[1,1]];" parent="1" vertex="1">
          <mxGeometry x="700" y="205" width="150" height="70" as="geometry" />
        </mxCell>
        <mxCell id="5QR5eO9x2RFh60aS3JR9-117" value="&lt;span style=&quot;text-align: center&quot;&gt;&amp;nbsp; &amp;nbsp; &amp;nbsp; &amp;nbsp; &amp;nbsp; &amp;nbsp;Warehouse&lt;/span&gt;&lt;br style=&quot;text-align: center&quot;&gt;&lt;span style=&quot;text-align: center&quot;&gt;&amp;nbsp; &amp;nbsp; &amp;nbsp; &amp;nbsp; &amp;nbsp; &amp;nbsp;Inventory Level&lt;/span&gt;" style="html=1;dashed=0;whitespace=wrap;shape=mxgraph.dfd.dataStoreID;align=left;spacingLeft=3;points=[[0,0],[0.5,0],[1,0],[0,0.5],[1,0.5],[0,1],[0.5,1],[1,1]];" parent="1" vertex="1">
          <mxGeometry x="700" y="450" width="150" height="70" as="geometry" />
        </mxCell>
        <mxCell id="5QR5eO9x2RFh60aS3JR9-127" value="" style="html=1;labelBackgroundColor=#ffffff;startArrow=classic;startFill=1;startSize=6;endArrow=classic;endFill=1;endSize=6;jettySize=auto;orthogonalLoop=1;strokeWidth=1;fontSize=14;entryX=0;entryY=1;entryDx=0;entryDy=0;exitX=1;exitY=0.5;exitDx=0;exitDy=0;" parent="1" source="5QR5eO9x2RFh60aS3JR9-104" target="5QR5eO9x2RFh60aS3JR9-52" edge="1">
          <mxGeometry width="60" height="60" relative="1" as="geometry">
            <mxPoint x="140" y="700" as="sourcePoint" />
            <mxPoint x="360" y="540" as="targetPoint" />
            <Array as="points">
              <mxPoint x="260" y="640" />
              <mxPoint x="210" y="690" />
            </Array>
          </mxGeometry>
        </mxCell>
        <mxCell id="5QR5eO9x2RFh60aS3JR9-128" value="Approved &lt;br&gt;and verified" style="edgeLabel;resizable=0;html=1;align=center;verticalAlign=middle;" parent="1" connectable="0" vertex="1">
          <mxGeometry x="269.9998611111539" y="680" as="geometry">
            <mxPoint x="-3" y="-3" as="offset" />
          </mxGeometry>
        </mxCell>
      </root>
    </mxGraphModel>
  </diagram>
</mxfile>
